<svg width="150" height="100" viewBox="0 0 150 100" fill="none" xmlns="http://www.w3.org/2000/svg">
<ellipse cx="75" cy="50" rx="75" ry="50" fill="url(#paint0_radial_0_1)"/>
<path d="M43.304 85.44C38.248 85.44 33.688 84.56 29.624 82.8C25.592 81.04 22.264 78.528 19.64 75.264C17.048 71.968 15.4 68.064 14.696 63.552L26.696 61.728C27.72 65.824 29.816 68.992 32.984 71.232C36.184 73.472 39.864 74.592 44.024 74.592C46.488 74.592 48.808 74.208 50.984 73.44C53.16 72.672 54.92 71.552 56.264 70.08C57.64 68.608 58.328 66.8 58.328 64.656C58.328 63.696 58.168 62.816 57.848 62.016C57.528 61.184 57.048 60.448 56.408 59.808C55.8 59.168 55 58.592 54.008 58.08C53.048 57.536 51.928 57.072 50.648 56.688L32.792 51.408C31.256 50.96 29.592 50.368 27.8 49.632C26.04 48.864 24.36 47.824 22.76 46.512C21.192 45.168 19.896 43.472 18.872 41.424C17.88 39.344 17.384 36.784 17.384 33.744C17.384 29.296 18.504 25.568 20.744 22.56C23.016 19.52 26.056 17.248 29.864 15.744C33.704 14.24 37.96 13.504 42.632 13.536C47.368 13.568 51.592 14.384 55.304 15.984C59.016 17.552 62.12 19.84 64.616 22.848C67.112 25.856 68.872 29.488 69.896 33.744L57.464 35.904C56.952 33.472 55.96 31.408 54.488 29.712C53.048 27.984 51.272 26.672 49.16 25.776C47.08 24.88 44.856 24.4 42.488 24.336C40.184 24.304 38.04 24.656 36.056 25.392C34.104 26.096 32.52 27.12 31.304 28.464C30.12 29.808 29.528 31.376 29.528 33.168C29.528 34.864 30.04 36.256 31.064 37.344C32.088 38.4 33.352 39.248 34.856 39.888C36.392 40.496 37.944 41.008 39.512 41.424L51.896 44.88C53.592 45.328 55.496 45.936 57.608 46.704C59.72 47.472 61.752 48.544 63.704 49.92C65.656 51.296 67.256 53.104 68.504 55.344C69.784 57.584 70.424 60.432 70.424 63.888C70.424 67.472 69.672 70.624 68.168 73.344C66.696 76.032 64.696 78.272 62.168 80.064C59.64 81.856 56.744 83.2 53.48 84.096C50.248 84.992 46.856 85.44 43.304 85.44ZM107.804 85.44C102.748 85.44 98.188 84.56 94.124 82.8C90.092 81.04 86.764 78.528 84.14 75.264C81.548 71.968 79.9 68.064 79.196 63.552L91.196 61.728C92.22 65.824 94.316 68.992 97.484 71.232C100.684 73.472 104.364 74.592 108.524 74.592C110.988 74.592 113.308 74.208 115.484 73.44C117.66 72.672 119.42 71.552 120.764 70.08C122.14 68.608 122.828 66.8 122.828 64.656C122.828 63.696 122.668 62.816 122.348 62.016C122.028 61.184 121.548 60.448 120.908 59.808C120.3 59.168 119.5 58.592 118.508 58.08C117.548 57.536 116.428 57.072 115.148 56.688L97.292 51.408C95.756 50.96 94.092 50.368 92.3 49.632C90.54 48.864 88.86 47.824 87.26 46.512C85.692 45.168 84.396 43.472 83.372 41.424C82.38 39.344 81.884 36.784 81.884 33.744C81.884 29.296 83.004 25.568 85.244 22.56C87.516 19.52 90.556 17.248 94.364 15.744C98.204 14.24 102.46 13.504 107.132 13.536C111.868 13.568 116.092 14.384 119.804 15.984C123.516 17.552 126.62 19.84 129.116 22.848C131.612 25.856 133.372 29.488 134.396 33.744L121.964 35.904C121.452 33.472 120.46 31.408 118.988 29.712C117.548 27.984 115.772 26.672 113.66 25.776C111.58 24.88 109.356 24.4 106.988 24.336C104.684 24.304 102.54 24.656 100.556 25.392C98.604 26.096 97.02 27.12 95.804 28.464C94.62 29.808 94.028 31.376 94.028 33.168C94.028 34.864 94.54 36.256 95.564 37.344C96.588 38.4 97.852 39.248 99.356 39.888C100.892 40.496 102.444 41.008 104.012 41.424L116.396 44.88C118.092 45.328 119.996 45.936 122.108 46.704C124.22 47.472 126.252 48.544 128.204 49.92C130.156 51.296 131.756 53.104 133.004 55.344C134.284 57.584 134.924 60.432 134.924 63.888C134.924 67.472 134.172 70.624 132.668 73.344C131.196 76.032 129.196 78.272 126.668 80.064C124.14 81.856 121.244 83.2 117.98 84.096C114.748 84.992 111.356 85.44 107.804 85.44Z" fill="url(#paint1_linear_0_1)"/>
<defs>
<radialGradient id="paint0_radial_0_1" cx="0" cy="0" r="1" gradientUnits="userSpaceOnUse" gradientTransform="translate(75 50) rotate(90) scale(50 75)">
<stop offset="0.817708" stop-color="#1A160C"/>
<stop offset="1" stop-color="#A9A663" stop-opacity="0"/>
</radialGradient>
<linearGradient id="paint1_linear_0_1" x1="75" y1="-18" x2="75" y2="113" gradientUnits="userSpaceOnUse">
<stop offset="0.182292" stop-color="#050000"/>
<stop offset="1" stop-color="#E9B01D" stop-opacity="0"/>
</linearGradient>
</defs>
</svg>
