<svg width="40" height="37" viewBox="0 0 40 37" fill="none" xmlns="http://www.w3.org/2000/svg">
<rect width="40" height="37" fill="#D9D9D9" fill-opacity="0.01"/>
<path d="M15.46 31.6C13.3533 31.6 11.4533 31.2333 9.76 30.5C8.08 29.7667 6.69333 28.72 5.6 27.36C4.52 25.9867 3.83333 24.36 3.54 22.48L8.54 21.72C8.96667 23.4267 9.84 24.7467 11.16 25.68C12.4933 26.6133 14.0267 27.08 15.76 27.08C16.7867 27.08 17.7533 26.92 18.66 26.6C19.5667 26.28 20.3 25.8133 20.86 25.2C21.4333 24.5867 21.72 23.8333 21.72 22.94C21.72 22.54 21.6533 22.1733 21.52 21.84C21.3867 21.4933 21.1867 21.1867 20.92 20.92C20.6667 20.6533 20.3333 20.4133 19.92 20.2C19.52 19.9733 19.0533 19.78 18.52 19.62L11.08 17.42C10.44 17.2333 9.74667 16.9867 9 16.68C8.26667 16.36 7.56667 15.9267 6.9 15.38C6.24667 14.82 5.70667 14.1133 5.28 13.26C4.86667 12.3933 4.66 11.3267 4.66 10.06C4.66 8.20666 5.12667 6.65333 6.06 5.4C7.00667 4.13333 8.27333 3.18666 9.86 2.56C11.46 1.93333 13.2333 1.62666 15.18 1.64C17.1533 1.65333 18.9133 1.99333 20.46 2.66C22.0067 3.31333 23.3 4.26667 24.34 5.52C25.38 6.77333 26.1133 8.28667 26.54 10.06L21.36 10.96C21.1467 9.94667 20.7333 9.08667 20.12 8.38C19.52 7.66 18.78 7.11333 17.9 6.74C17.0333 6.36667 16.1067 6.16667 15.12 6.14C14.16 6.12667 13.2667 6.27333 12.44 6.58C11.6267 6.87333 10.9667 7.3 10.46 7.86C9.96667 8.42 9.72 9.07333 9.72 9.82C9.72 10.5267 9.93333 11.1067 10.36 11.56C10.7867 12 11.3133 12.3533 11.94 12.62C12.58 12.8733 13.2267 13.0867 13.88 13.26L19.04 14.7C19.7467 14.8867 20.54 15.14 21.42 15.46C22.3 15.78 23.1467 16.2267 23.96 16.8C24.7733 17.3733 25.44 18.1267 25.96 19.06C26.4933 19.9933 26.76 21.18 26.76 22.62C26.76 24.1133 26.4467 25.4267 25.82 26.56C25.2067 27.68 24.3733 28.6133 23.32 29.36C22.2667 30.1067 21.06 30.6667 19.7 31.04C18.3533 31.4133 16.94 31.6 15.46 31.6Z" fill="url(#paint0_linear_0_1)"/>
<path d="M25.46 34.6C23.3533 34.6 21.4533 34.2333 19.76 33.5C18.08 32.7667 16.6933 31.72 15.6 30.36C14.52 28.9867 13.8333 27.36 13.54 25.48L18.54 24.72C18.9667 26.4267 19.84 27.7467 21.16 28.68C22.4933 29.6133 24.0267 30.08 25.76 30.08C26.7867 30.08 27.7533 29.92 28.66 29.6C29.5667 29.28 30.3 28.8133 30.86 28.2C31.4333 27.5867 31.72 26.8333 31.72 25.94C31.72 25.54 31.6533 25.1733 31.52 24.84C31.3867 24.4933 31.1867 24.1867 30.92 23.92C30.6667 23.6533 30.3333 23.4133 29.92 23.2C29.52 22.9733 29.0533 22.78 28.52 22.62L21.08 20.42C20.44 20.2333 19.7467 19.9867 19 19.68C18.2667 19.36 17.5667 18.9267 16.9 18.38C16.2467 17.82 15.7067 17.1133 15.28 16.26C14.8667 15.3933 14.66 14.3267 14.66 13.06C14.66 11.2067 15.1267 9.65333 16.06 8.4C17.0067 7.13333 18.2733 6.18666 19.86 5.56C21.46 4.93333 23.2333 4.62666 25.18 4.64C27.1533 4.65333 28.9133 4.99333 30.46 5.66C32.0067 6.31333 33.3 7.26667 34.34 8.52C35.38 9.77333 36.1133 11.2867 36.54 13.06L31.36 13.96C31.1467 12.9467 30.7333 12.0867 30.12 11.38C29.52 10.66 28.78 10.1133 27.9 9.74C27.0333 9.36667 26.1067 9.16667 25.12 9.14C24.16 9.12667 23.2667 9.27333 22.44 9.58C21.6267 9.87333 20.9667 10.3 20.46 10.86C19.9667 11.42 19.72 12.0733 19.72 12.82C19.72 13.5267 19.9333 14.1067 20.36 14.56C20.7867 15 21.3133 15.3533 21.94 15.62C22.58 15.8733 23.2267 16.0867 23.88 16.26L29.04 17.7C29.7467 17.8867 30.54 18.14 31.42 18.46C32.3 18.78 33.1467 19.2267 33.96 19.8C34.7733 20.3733 35.44 21.1267 35.96 22.06C36.4933 22.9933 36.76 24.18 36.76 25.62C36.76 27.1133 36.4467 28.4267 35.82 29.56C35.2067 30.68 34.3733 31.6133 33.32 32.36C32.2667 33.1067 31.06 33.6667 29.7 34.04C28.3533 34.4133 26.94 34.6 25.46 34.6Z" fill="url(#paint1_linear_0_1)"/>
<defs>
<linearGradient id="paint0_linear_0_1" x1="17.5" y1="-12" x2="17.5" y2="38" gradientUnits="userSpaceOnUse">
<stop stop-color="#6BEB7A"/>
<stop offset="1" stop-color="#F49867"/>
</linearGradient>
<linearGradient id="paint1_linear_0_1" x1="27.5" y1="-9" x2="27.5" y2="41" gradientUnits="userSpaceOnUse">
<stop stop-color="#6BEB7A"/>
<stop offset="1" stop-color="#F49867"/>
</linearGradient>
</defs>
</svg>
